<?xml version="1.0" encoding="UTF-8" standalone="no"?>
<!-- Created with Inkscape (http://www.inkscape.org/) -->

<svg
   xmlns:dc="http://purl.org/dc/elements/1.1/"
   xmlns:cc="http://creativecommons.org/ns#"
   xmlns:rdf="http://www.w3.org/1999/02/22-rdf-syntax-ns#"
   xmlns:svg="http://www.w3.org/2000/svg"
   xmlns="http://www.w3.org/2000/svg"
   xmlns:sodipodi="http://sodipodi.sourceforge.net/DTD/sodipodi-0.dtd"
   xmlns:inkscape="http://www.inkscape.org/namespaces/inkscape"
   width="210mm"
   height="297mm"
   viewBox="0 0 210 297"
   version="1.1"
   id="svg5"
   sodipodi:docname="Logo.svg"
   inkscape:version="0.92.5 (2060ec1f9f, 2020-04-08)">
  <metadata
     id="metadata3771">
    <rdf:RDF>
      <cc:Work
         rdf:about="">
        <dc:format>image/svg+xml</dc:format>
        <dc:type
           rdf:resource="http://purl.org/dc/dcmitype/StillImage" />
        <dc:title />
      </cc:Work>
    </rdf:RDF>
  </metadata>
  <sodipodi:namedview
     id="namedview7"
     pagecolor="#505050"
     bordercolor="#eeeeee"
     borderopacity="1"
     inkscape:pageshadow="0"
     inkscape:pageopacity="0"
     inkscape:pagecheckerboard="0"
     inkscape:document-units="mm"
     showgrid="false"
     inkscape:zoom="0.32693273"
     inkscape:cx="-38.87454"
     inkscape:cy="430.28347"
     inkscape:window-width="1366"
     inkscape:window-height="704"
     inkscape:window-x="0"
     inkscape:window-y="27"
     inkscape:window-maximized="1"
     inkscape:current-layer="layer1"
     showguides="true"
     inkscape:guide-bbox="true">
    <sodipodi:guide
       position="108.1314,158.0238"
       orientation="0,1"
       id="guide3775"
       inkscape:locked="false" />
  </sodipodi:namedview>
  <defs
     id="defs2" />
  <g
     inkscape:label="Camada 1"
     inkscape:groupmode="layer"
     id="layer1"
     style="display:inline;mix-blend-mode:normal">
    <path
       id="rect2023"
       style="fill:#ffffff;fill-opacity:1;fill-rule:evenodd;stroke:#050400;stroke-width:2.994;stroke-linejoin:round;stroke-opacity:1;paint-order:stroke fill markers;stroke-miterlimit:4;stroke-dasharray:none;opacity:1"
       d="m 113.27009,67.25706 c -0.30667,0 -0.61368,0.137626 -0.84875,0.412449 L 58.547898,130.70104 c -0.470218,0.55012 -0.470218,1.43583 0,1.98601 l 53.873442,63.03163 c 0.47017,0.55011 1.2273,0.55011 1.69745,0 l 21.66699,-25.35025 -6.1131,-6.74417 -15.55389,18.19724 c -0.47015,0.55011 -1.22727,0.55011 -1.69745,0 L 70.425872,132.68705 c -0.470221,-0.55014 -0.470221,-1.43595 0,-1.98601 L 112.42134,81.566579 c 0.47017,-0.550119 1.2273,-0.550119 1.69745,0 l 41.99624,49.134461 c 0.47037,0.55012 0.47037,1.43583 0,1.98601 l -3.96853,4.64312 6.1131,6.744 9.73267,-11.38712 c 0.47035,-0.55014 0.47035,-1.43595 0,-1.98601 L 114.11879,67.669509 c -0.23509,-0.275339 -0.5419,-0.412449 -0.8487,-0.412449 z m 1.51252,50.62011 c -0.30666,0 -0.61365,0.13764 -0.84877,0.41301 l -11.7631,13.76273 5.96066,6.92329 5.80244,-6.78884 c 0.47022,-0.54956 1.2273,-0.54956 1.69752,0 l 41.99624,49.13442 c 0.47033,0.54956 0.47033,1.43687 0,1.98694 l -41.99624,49.13447 c -0.47022,0.55011 -1.2273,0.55011 -1.69752,0 L 71.93842,183.30872 c -0.47022,-0.55012 -0.47022,-1.43687 0,-1.98694 l 5.397248,-6.31475 -5.960655,-6.92318 -11.314566,13.23793 c -0.470153,0.54956 -0.470221,1.43682 0,1.98694 l 53.873393,63.03153 c 0.47022,0.55012 1.2273,0.55012 1.69752,0 l 53.87414,-63.03153 c 0.47034,-0.55012 0.47034,-1.43687 0,-1.98694 l -53.87414,-63.03175 c -0.23506,-0.27534 -0.54187,-0.41301 -0.84875,-0.41301 z"
       inkscape:connector-curvature="0" />
    <g
       inkscape:label="Rendered Gears"
       transform="matrix(1.7625628,0,0,1.7625628,105,139.44037)"
       id="g3923"
       style="fill:#808080">
      <g
         id="path3919" />
      <g
         id="path3921" />
    </g>
    <path
       id="path1231"
       style="fill:#ffffff;fill-opacity:1;fill-rule:evenodd;stroke:#000000;stroke-width:7.32924652;stroke-linejoin:round;stroke-opacity:1;paint-order:stroke fill markers"
       d="m 88.870479,11.97279 c -0.846516,7.687242 -2.260725,15.705053 -0.08275,23.23628 -3.376308,0.695209 -8.074965,7.176021 -9.552487,0.703406 -2.945475,-5.571191 -7.590729,-8.969221 -11.736013,-13.006307 -3.50168,2.408312 -8.139313,4.120452 -5.7321,10.142491 0.357934,5.896507 1.554878,11.861057 4.20545,16.827531 -3.118084,1.752108 -6.30206,9.511895 -9.081979,3.720879 -4.012154,-4.435854 -9.208386,-6.231465 -14.05641,-8.804417 -2.87718,3.448387 -7.003258,6.586357 -3.414861,11.636464 1.581104,5.582227 3.990837,10.952941 7.58634,14.911369 -2.641738,2.679141 -4.086524,11.18552 -7.985077,6.499358 -4.805092,-3.008482 -10.20364,-3.08702 -15.426807,-4.029909 -2.056154,4.252247 -5.389853,8.606664 -0.860863,12.337451 2.702721,4.88242 6.151983,9.305736 10.454172,11.983389 -1.990618,3.433605 -1.604541,12.112475 -6.354902,8.824285 -5.270079,-1.37729 -10.498048,0.27968 -15.738642,1.04152 -1.0958825,4.76214 -3.3990179,10.02757 1.75367,12.18724 3.633139,3.85148 7.889875,7.04374 12.611295,8.23328 -1.204566,3.95345 0.986328,12.21804 -4.286835,10.5591 -5.381356,0.35307 -10.085742,3.62426 -14.989463,6.03725 -0.061291,4.948 -1.1786892,10.76437 4.249369,11.20127 4.318417,2.56368 9.101621,4.27321 13.913715,3.92875 -0.33542,4.20512 3.507923,11.48633 -1.932261,11.56761 -5.117562,2.07808 -8.982307,6.72801 -13.2146325,10.62431 0.9803145,4.80082 1.1187625,10.78487 6.4565445,9.4696 4.70609,1.08548 9.685774,1.22538 14.255839,-0.65596 0.563161,4.16823 5.812264,9.96711 0.569405,11.7912 -4.512713,3.63633 -7.265135,9.37109 -10.535248,14.48865 1.950807,4.32297 3.33955,10.04976 8.217422,7.07788 4.776238,-0.44201 9.606071,-1.91912 13.629026,-5.19129 1.419243,3.84934 7.70436,7.77831 3.013523,11.21026 -3.593095,4.95319 -5.047178,11.37003 -7.131262,17.35513 2.793254,3.55198 5.33503,8.64588 9.42567,4.21579 4.521705,-1.95197 8.872012,-4.92687 12.078451,-9.3657 2.170128,3.26137 9.060401,5.04503 5.264558,9.85794 -2.436913,5.93214 -2.499032,12.59639 -3.262825,19.04465 3.444397,2.53845 6.970026,6.65455 9.992054,1.06326 3.95478,-3.33663 7.537354,-7.59675 9.706261,-12.90796 2.781276,2.45753 9.81129,1.98088 7.147805,7.84539 -1.115608,6.50614 0.228516,12.96168 0.845582,19.43144 3.857403,1.35298 8.120957,4.19674 9.870309,-2.16451 3.119748,-4.48523 5.706568,-9.74274 6.670198,-15.57155 3.20233,1.48705 9.89675,-1.21763 8.55297,5.29231 0.2862,6.64351 2.93431,12.45179 4.88877,18.5057 4.00793,0.076 8.71927,1.45508 9.07322,-5.24608 2.07661,-5.33129 3.46175,-11.23456 3.18274,-17.17524 3.40618,0.41414 9.30368,-4.33257 9.36951,2.38358 1.68327,6.31785 5.44978,11.0891 8.60587,16.31409 3.88873,-1.21014 8.73625,-1.37932 7.6709,-7.96908 0.87922,-5.80986 0.99255,-11.95754 -0.53137,-17.59952 3.37631,-0.6952 8.07348,-7.17547 9.55099,-0.7029 2.94548,5.57113 7.59076,8.96917 11.73607,13.00625 3.50169,-2.40837 8.14042,-4.12279 5.73323,-10.14478 -0.35789,-5.89646 -1.55454,-11.85915 -4.20507,-16.82568 3.11804,-1.75216 6.30052,-9.51148 9.08046,-3.72034 4.01218,4.43582 9.20984,6.23099 14.05791,8.80384 2.87717,-3.44841 7.00285,-6.58817 3.4145,-11.63826 -0.60411,-2.13281 -1.33114,-4.23277 -2.19706,-6.23686 l -0.72555,0.24004 c 1.50891,3.53168 2.64257,7.33715 3.84552,11.06173 -2.67273,4.9502 -5.90128,6.48666 -9.98139,2.7832 -4.03016,-1.82062 -7.83859,-4.84048 -10.60022,-8.91838 -1.71762,3.24811 -9.35694,5.34601 -6.72477,9.43955 2.80216,6.19646 3.20323,13.28145 3.86511,20.19427 -3.61961,3.92749 -7.05981,4.37993 -10.2245,-0.50146 -3.51104,-3.04657 -6.55665,-7.18046 -8.3691,-12.00208 -2.34,2.58867 -10.15875,2.17493 -8.47453,6.97006 1.40778,6.88072 0.31083,13.85252 -0.49917,20.74124 -4.31961,2.6372 -7.73866,1.97548 -9.7721,-3.75081 -2.75263,-4.06457 -4.82746,-9.03058 -5.56729,-14.26689 -2.80306,1.75258 -10.26819,-1.14752 -9.64666,4.02233 -0.0827,7.09608 -2.60498,13.48109 -4.83158,19.87635 -4.72525,1.16706 -7.88798,-0.56336 -8.65166,-6.74425 -1.80673,-4.80554 -2.77113,-10.26581 -2.38795,-15.56014 -3.07499,0.79734 -9.67759,-4.39039 -10.16122,0.8019 -1.56751,6.82793 -5.343019,12.18954 -8.834629,17.65535 -4.80891,-0.382 -7.500552,-3.06506 -6.942703,-9.27907 -0.738169,-5.21926 -0.522134,-10.80036 0.957673,-15.792 -3.137365,-0.21217 -8.429582,-7.33197 -9.98494,-2.471 -2.945323,6.09446 -7.71516,10.06491 -12.23346,14.22896 -4.564818,-1.90628 -6.603235,-5.35604 -4.761132,-11.18047 0.381703,-5.27694 1.758372,-10.60201 4.234891,-14.95006 -2.986056,-1.20787 -6.604114,-9.7737 -9.126008,-5.57586 -4.122566,4.94613 -9.562268,7.25823 -14.799825,9.83636 -4.009695,-3.2996 -5.254308,-7.28538 -2.254411,-12.32245 1.474731,-4.97542 3.920811,-9.67706 7.223996,-13.08645 -2.631029,-2.12055 -4.330319,-11.55166 -7.646173,-8.30215 -5.019196,3.45948 -10.758149,3.9546 -16.357639,4.77166 -3.181295,-4.46844 -3.549316,-8.71509 0.404675,-12.62203 2.467752,-4.33456 5.816265,-8.09448 9.721827,-10.33199 -2.09683,-2.8889 -1.760223,-12.542 -5.644348,-10.46276 -5.573462,1.73794 -11.22109,0.382 -16.801114,-0.61807 -2.1360954,-5.33275 -1.601267,-9.55136 3.037147,-12.06175 3.29238,-3.39827 7.316373,-5.96021 11.557915,-6.87358 -1.41964,-3.4605 0.929475,-12.67656 -3.258219,-11.90924 -5.747953,-0.10244 -10.919813,-3.21601 -16.1000892,-5.96482 -0.9453301,-5.83359 0.4563096,-9.73814 5.4629242,-10.68092 3.892587,-2.2305 8.315485,-3.42106 12.603939,-2.94798 -0.645759,-3.7963 3.55479,-11.94699 -0.651039,-12.54406 -5.530715,-1.93523 -9.872221,-6.59662 -14.2995774,-10.90723 0.3096244,-5.93684 2.4827514,-9.25981 7.5161884,-8.57108 4.227648,-0.91128 8.748013,-0.64646 12.791311,1.18044 0.172127,-3.87326 5.939409,-10.404912 2.001956,-12.325038 -4.936593,-3.63612 -8.154177,-9.524217 -11.527144,-15.102257 1.544102,-5.635492 4.339936,-8.152502 9.057827,-5.878357 4.274403,0.470945 8.586239,2.171246 12.108277,5.228695 0.978316,-3.686482 7.918338,-8.15363 4.518,-11.26701 -4.006448,-5.089486 -5.879677,-11.806894 -7.968002,-18.27297 2.672725,-4.950135 5.899748,-6.486168 9.979851,-2.782648 4.030179,1.820633 7.838952,4.842286 10.600641,8.920251 1.717635,-3.248174 9.35847,-5.346495 6.726323,-9.440101 -2.802211,-6.196377 -3.204789,-13.280942 -3.866633,-20.193845 3.619541,-3.927467 7.059385,-4.381797 10.22406,0.499333 3.511033,3.046619 6.558129,7.180089 8.370545,12.00164 2.340045,-2.588596 10.15921,-2.173057 8.474964,-6.968195 -1.407768,-6.88076 -0.31079,-13.852547 0.499157,-20.741339 0.809925,-0.494511 1.587815,-0.8726 2.331162,-1.123495 3.221163,-1.087227 5.788342,0.219661 7.440539,4.872447 2.752667,4.064625 4.827867,9.032441 5.567717,14.268884 2.80303,-1.752642 10.26773,1.145624 9.64625,-4.024333 0.0827,-7.096083 2.60538,-13.479169 4.83195,-19.8744739 4.72526,-1.1670541 7.88799,0.5633563 8.65167,6.7442469 1.80672,4.805585 2.77113,10.26582 2.38794,15.560182 3.07497,-0.797324 9.6772,4.388602 10.16086,-0.803753 1.5675,-6.82793 5.34149,-12.189104 8.83309,-17.654856 4.80893,0.381999 7.50209,3.064566 6.94424,9.278567 0.73815,5.21925 0.52252,10.802228 -0.95731,15.793939 3.13734,0.212162 8.42811,7.332462 9.98343,2.471532 2.94532,-6.094578 7.7163,-10.067322 12.23461,-14.231383 4.5648,1.906192 6.60366,5.357797 4.76156,11.182402 -0.38161,5.2769 -1.75877,10.600086 -4.2353,14.948238 2.986,1.207718 6.60447,9.775489 9.12641,5.577619 4.12254,-4.946169 9.56227,-7.258203 14.79983,-9.836353 4.00969,3.299608 5.25389,7.283492 2.25399,12.320582 -0.0456,0.152688 -0.0939,0.304316 -0.14137,0.456474 l 0.87813,-0.290387 c 0.79169,-2.367914 1.51558,-4.782065 2.33381,-7.131925 -2.79324,-3.552005 -5.33545,-8.647707 -9.42604,-4.21764 -4.52171,1.951949 -8.87202,4.926883 -12.07845,9.365685 -2.17017,-3.261352 -9.06003,-5.043145 -5.26418,-9.856121 2.43691,-5.932081 2.49907,-12.596396 3.26281,-19.044738 -3.44432,-2.538393 -6.97002,-6.654504 -9.99203,-1.063278 -3.9548,3.336629 -7.53779,7.595042 -9.70672,12.906282 -2.78127,-2.457496 -9.81275,-1.980344 -7.14928,-7.844973 1.1156,-6.506152 -0.2266,-12.960392 -0.84368,-19.430113 -3.85741,-1.352964 -8.12243,-4.196261 -9.87181,2.16497 -3.11979,4.48525 -5.70554,9.740394 -6.66911,15.569289 -3.20232,-1.487117 -9.89678,1.217685 -8.55297,-5.292327 -0.2862,-6.643574 -2.93573,-12.45136 -4.89027,-18.5052216 -4.0079,-0.076085 -8.71778,-1.4556167 -9.07169,5.2455536 -2.07659,5.331224 -3.46137,11.236411 -3.18236,17.177119 -3.40616,-0.414147 -9.30407,4.330738 -9.36991,-2.385433 C 102.84956,19.634475 99.083028,14.86334 95.926952,9.6383053 Z m 3.582635,0.151086 c -0.713745,0.199305 -1.482425,0.59604 -2.312917,1.222399 -0.865022,7.2948 -2.064061,14.96495 0.186865,22.07025 -1.637438,2.981308 -7.102484,3.858246 -10.143957,6.067414 -1.638639,-4.542526 -4.294526,-8.656761 -7.552398,-11.593336 -3.137394,-3.975794 -6.365558,-6.201143 -9.947456,-1.567001 0.703292,7.325817 1.156861,15.124446 4.821786,21.255622 -0.954239,3.399256 -6.054983,5.994175 -8.530455,9.098605 -2.541332,-3.855677 -5.969251,-6.975 -9.728983,-8.775061 -3.864059,-2.842867 -7.446425,-3.960203 -9.927753,1.670832 2.209833,6.852632 4.287066,14.233689 9.107783,18.988532 -0.209832,3.58994 -4.591881,7.724539 -6.33214,11.514744 -3.260009,-2.911126 -7.220818,-4.827603 -11.226203,-5.368032 -4.330715,-1.517758 -8.023101,-1.445172 -9.247452,4.783088 3.568103,5.915261 7.123549,12.373252 12.773605,15.430306 0.549838,3.536972 -2.811785,8.930922 -3.697421,13.149152 -3.758644,-1.77804 -7.990068,-2.35666 -11.973166,-1.59957 -4.496547,-0.0803 -8.05381,1.16008 -7.934871,7.56546 4.686971,4.57986 9.478042,9.68617 15.57967,10.83613 1.272897,3.24013 -0.844953,9.52503 -0.815776,13.8824 -4.004984,-0.52506 -8.213281,0.27699 -11.904155,2.27909 -4.361954,1.35685 -7.5379752,3.68838 -6.069095,9.83821 5.486426,2.93112 11.185208,6.34356 17.322011,5.48541 1.908115,2.71846 1.178611,9.46662 2.119038,13.66375 -3.973426,0.79567 -7.877583,2.89205 -11.01814,6.01409 -3.917904,2.71006 -6.5061818,5.97319 -3.800337,11.44136 5.913059,1.07732 12.126766,2.53769 17.877135,-0.23092 2.414902,2.02144 3.125226,8.76825 4.914677,12.52316 -3.679482,2.02301 -7.011629,5.30368 -9.39029,9.3256 -3.220462,3.87323 -5.022955,7.85863 -1.269243,12.28061 5.933932,-0.86802 12.250521,-1.43005 17.216844,-5.95452 2.753464,1.17803 4.856889,7.47466 7.371498,10.53072 -3.123145,3.13741 -5.650956,7.37166 -7.10901,12.01323 -2.302778,4.77041 -3.207853,9.19297 1.353386,12.25625 5.550757,-2.7281 11.529489,-5.29254 15.38098,-11.24397 2.907899,0.25878 6.258485,5.66839 9.328594,7.81682 -2.358059,4.02463 -3.911957,8.91493 -4.349677,13.85981 -1.22944,5.34644 -1.170588,9.90487 3.874372,11.41638 4.791408,-4.40494 10.022449,-8.79436 12.498732,-15.76963 2.864967,-0.67881 7.234197,3.47125 10.651,4.56466 -1.440203,4.64019 -1.90886,9.86411 -1.295655,14.78146 -0.0651,5.55115 0.939681,9.9428 6.128135,9.79594 3.709766,-5.7863 7.845945,-11.70106 8.777425,-19.23382 2.62456,-1.57149 7.71499,1.04129 11.24452,1.00527 -0.42521,4.94429 0.22508,10.14151 1.84651,14.6981 1.09907,5.38506 2.98762,9.30588 7.96912,7.4926 2.37418,-6.77331 5.13833,-13.80871 4.44323,-21.38485 2.20199,-2.35571 7.67003,-1.4538 11.06929,-2.61656 0.64452,4.90534 2.34071,9.72387 4.86964,13.60105 2.19514,4.83684 4.83872,8.03405 9.268,4.6935 0.87263,-7.29994 2.05517,-14.97281 -0.18735,-22.07196 1.63749,-2.98143 7.10438,-3.85692 10.14591,-6.06608 1.63863,4.54254 4.29453,8.65677 7.55237,11.59324 3.1374,3.97579 6.36553,6.2011 9.94743,1.56693 -0.70341,-7.32559 -1.15677,-15.12433 -4.82174,-21.25542 0.95422,-3.39934 6.05308,-5.99562 8.52853,-9.10004 2.5413,3.85569 5.97071,6.97454 9.7305,8.77459 3.864,2.84292 7.44678,3.96208 9.92813,-1.66894 -1.14357,-3.54618 -2.25503,-7.23029 -3.72605,-10.62227 l -5.47522,1.81117 c -1.61425,0.53417 -3.262,-0.63888 -3.69454,-2.63176 L 190.5472,225.65623 A 94.816439,112.65176 3.8242294 0 1 145.95629,257.57039 94.816439,112.65176 3.8242294 0 1 30.49036,179.59138 94.816439,112.65176 3.8242294 0 1 98.904765,40.785567 94.816439,112.65176 3.8242294 0 1 186.46665,64.427691 l 16.83553,-5.569102 c 2.22356,-4.68568 3.03427,-9.020224 -1.45636,-12.036143 -5.55071,2.728162 -11.52985,5.290774 -15.38134,11.242144 -2.90791,-0.258775 -6.25812,-5.66656 -9.32821,-7.815025 2.35804,-4.024601 3.91196,-8.914893 4.34968,-13.859777 1.22948,-5.346494 1.17015,-9.906806 -3.8748,-11.418303 -4.79139,4.404996 -10.02199,8.796277 -12.4983,15.771545 -2.86495,0.67881 -7.2346,-3.47309 -10.65139,-4.566477 1.4402,-4.640302 1.90922,-9.86239 1.29605,-14.779683 0.0652,-5.551207 -0.93963,-9.942862 -6.12814,-9.79601 -3.70973,5.786301 -7.84596,11.701134 -8.77743,19.233864 -2.62453,1.571501 -7.71534,-1.043133 -11.24493,-1.007077 0.42532,-4.944349 -0.22446,-10.139757 -1.84604,-14.696317 -1.09911,-5.3850145 -2.98765,-9.3059482 -7.96912,-7.4925464 -2.3742,6.7732284 -5.13838,13.8086634 -4.44325,21.3848414 -2.20198,2.3557 -7.66966,1.455565 -11.06931,2.616564 -0.64448,-4.905398 -2.34112,-9.725825 -4.870041,-13.602933 -1.783556,-3.929933 -3.863291,-6.776122 -6.956191,-5.913597 z"
       inkscape:connector-curvature="0" />
  </g>
</svg>
